<?xml version="1.0" standalone="no"?>
<!DOCTYPE svg PUBLIC "-//W3C//DTD SVG 20010904//EN"
 "http://www.w3.org/TR/2001/REC-SVG-20010904/DTD/svg10.dtd">
<svg version="1.0" xmlns="http://www.w3.org/2000/svg"
 width="945.000000pt" height="1024.000000pt" viewBox="0 0 945.000000 1024.000000"
 preserveAspectRatio="xMidYMid meet">
<metadata>
Created by potrace 1.16, written by Peter Selinger 2001-2019
</metadata>
<g transform="translate(0.000000,1024.000000) scale(0.100000,-0.100000)"
fill="#000000" stroke="none">
<path d="M4370 9280 c-41 -4 -122 -13 -180 -19 -239 -26 -566 -98 -820 -181
-253 -84 -601 -240 -810 -366 -216 -129 -461 -303 -620 -442 -182 -159 -441
-429 -558 -582 -23 -30 -45 -59 -50 -65 -4 -5 -19 -26 -32 -45 -14 -19 -27
-37 -30 -40 -16 -15 -88 -123 -173 -262 -117 -190 -229 -405 -292 -563 -9 -22
-24 -58 -34 -80 -10 -22 -30 -76 -45 -120 -15 -44 -32 -93 -37 -110 -30 -87
-68 -217 -79 -270 -7 -33 -16 -69 -20 -80 -15 -39 -56 -251 -79 -405 -51 -341
-49 -827 5 -1184 17 -114 61 -337 74 -381 5 -16 19 -66 30 -110 44 -167 59
-218 69 -228 6 -6 11 -20 11 -32 0 -19 106 -300 129 -342 5 -10 38 -76 72
-148 61 -130 184 -349 246 -437 18 -26 33 -50 33 -53 0 -10 196 -274 263 -354
271 -323 560 -583 904 -813 601 -401 1254 -630 1988 -698 231 -21 665 -11 905
21 1010 133 1938 626 2610 1384 82 93 152 180 268 335 18 24 163 242 189 285
59 97 210 385 245 470 9 22 27 63 39 90 157 362 277 866 309 1295 18 250 8
694 -20 850 -5 30 -14 91 -20 135 -12 102 -76 388 -110 500 -5 17 -19 62 -31
100 -67 223 -219 578 -339 790 -100 177 -256 415 -271 415 -5 0 -9 5 -9 12 0
32 -249 328 -425 503 -315 316 -675 577 -1075 780 -457 231 -918 369 -1440
431 -153 18 -670 27 -790 14z m730 -215 c1560 -151 2911 -1235 3405 -2733 220
-666 260 -1369 119 -2077 -203 -1014 -840 -1951 -1719 -2530 -531 -350 -1102
-557 -1770 -642 -213 -27 -690 -25 -920 5 -1085 139 -2012 661 -2685 1512
-478 605 -773 1356 -840 2137 -14 170 -12 529 5 713 61 679 307 1351 701 1917
195 280 522 629 784 837 563 447 1196 725 1900 836 108 16 198 25 455 44 87 7
415 -5 565 -19z"/>
<path d="M4242 8370 c-178 -19 -269 -51 -317 -114 -43 -56 -44 -80 -12 -170
24 -70 26 -83 15 -105 -7 -13 -74 -85 -148 -160 -135 -136 -285 -258 -370
-301 -74 -38 -219 -79 -320 -91 -167 -20 -361 20 -557 117 -55 27 -98 42 -105
38 -27 -16 -513 -388 -520 -397 -3 -6 3 -31 14 -56 52 -119 120 -344 158 -526
69 -328 67 -685 -6 -917 -35 -111 -75 -190 -169 -328 -264 -392 -368 -653
-410 -1031 -47 -423 27 -835 195 -1084 163 -242 383 -468 622 -638 121 -86
454 -281 604 -353 267 -129 621 -231 949 -273 44 -6 115 -15 157 -20 224 -30
608 -53 768 -46 786 30 1337 142 1767 358 162 82 497 289 632 390 181 136 405
374 540 573 85 126 150 301 188 504 14 75 18 147 18 340 0 212 -4 262 -23 370
-63 347 -153 551 -412 935 -106 157 -151 262 -186 435 -24 117 -26 138 -21
340 5 219 19 329 67 535 26 113 91 320 130 416 16 40 26 76 22 80 -4 3 -54 42
-112 86 -243 184 -396 300 -408 307 -9 5 -48 -9 -105 -37 -122 -61 -224 -94
-353 -114 -130 -20 -248 -9 -391 36 -112 35 -181 73 -292 159 -88 68 -270 245
-334 324 l-39 47 27 81 c32 95 29 134 -15 184 -36 41 -110 74 -210 93 -88 17
-898 27 -1038 13z m983 -180 c57 -9 125 -28 125 -34 0 0 -16 -43 -35 -95 -19
-51 -35 -95 -35 -97 0 -12 225 -256 311 -338 198 -189 343 -279 528 -331 250
-70 485 -53 748 53 54 22 103 36 108 32 6 -3 83 -62 172 -129 l161 -122 -24
-72 c-43 -127 -103 -358 -128 -497 -78 -436 -44 -828 98 -1108 14 -28 26 -54
26 -57 0 -3 -138 -5 -306 -5 -287 0 -306 1 -301 18 4 9 20 64 37 122 17 58 42
139 55 180 12 41 26 86 30 100 l8 25 -23 -20 c-23 -20 -20 -6 5 25 20 23 129
286 154 367 12 40 24 80 28 89 5 13 3 15 -8 9 -8 -5 -4 3 7 16 12 13 31 42 42
65 12 23 37 62 56 88 20 25 36 48 36 50 0 8 -54 -11 -100 -34 -67 -34 -183
-116 -218 -154 -17 -19 -34 -35 -39 -37 -15 -7 -51 -64 -59 -94 -6 -25 -8 -26
-14 -10 -14 39 -201 -256 -216 -340 -3 -22 -11 -46 -17 -53 -9 -11 -6 -50 8
-112 3 -15 -2 -10 -14 14 l-19 40 -7 -40 c-3 -21 -11 -61 -17 -88 -6 -26 -8
-74 -5 -104 3 -31 2 -51 -2 -43 -9 14 -21 -17 -21 -57 l0 -22 -351 2 -352 3
-20 58 c-12 31 -27 57 -34 57 -11 0 -11 -4 1 -22 12 -20 76 -194 121 -333 8
-22 45 -132 84 -244 39 -112 69 -207 66 -210 -3 -3 -20 1 -38 8 -105 41 -306
102 -392 117 -130 24 -307 24 -393 0 -58 -16 -66 -16 -88 -1 -13 8 -24 24 -24
35 0 25 -2 25 -50 0 -47 -24 -49 -38 -15 -78 22 -26 23 -31 10 -42 -13 -11
-27 -8 -80 14 l-64 28 -65 -26 c-77 -31 -74 -31 -100 -7 -38 35 -125 72 -209
88 -167 32 -416 -8 -680 -109 -43 -17 -81 -28 -84 -25 -5 6 7 41 112 342 36
105 85 244 107 310 22 66 45 124 49 129 13 15 11 26 -5 26 -7 0 -23 -27 -36
-60 l-22 -60 -339 0 -339 0 25 38 c14 21 30 53 35 71 8 27 6 32 -7 29 -9 -2
-21 -18 -27 -36 -6 -18 -15 -30 -19 -26 -4 4 -7 3 -7 -2 0 -6 5 -15 12 -22 9
-9 8 -12 -6 -12 -9 0 -15 -4 -12 -9 3 -5 -8 -14 -24 -21 -17 -7 -38 -25 -47
-41 -22 -36 -65 -54 -126 -51 -42 2 -55 8 -90 41 -33 32 -37 41 -27 53 8 8 27
12 52 10 32 -4 43 1 69 26 20 19 27 32 19 37 -8 5 -8 11 1 21 6 8 9 17 5 21
-3 4 -72 9 -153 11 l-146 5 7 -26 c9 -36 23 -68 42 -94 l16 -23 -291 0 c-160
0 -291 2 -291 5 0 3 13 32 30 64 182 361 181 906 -4 1496 -24 77 -46 147 -50
156 -5 12 30 45 149 135 86 65 165 125 175 132 15 11 24 10 58 -7 67 -34 162
-67 257 -89 316 -73 631 -7 890 185 97 72 383 353 452 443 l42 56 -34 97 -35
98 25 9 c27 10 159 28 250 34 127 8 813 -3 880 -14z m-3160 -2766 c33 -20 62
-38 64 -40 2 -1 -37 -63 -86 -136 -287 -427 -370 -671 -380 -1117 -7 -277 19
-453 96 -645 85 -213 394 -560 653 -734 182 -122 416 -261 553 -329 286 -142
729 -259 1090 -288 76 -6 79 -6 58 10 -13 9 -34 35 -48 59 -120 205 198 398
660 400 269 1 494 -61 613 -169 102 -92 109 -185 21 -274 l-34 -34 65 7 c344
37 709 128 965 242 250 110 620 335 800 486 191 159 409 417 485 573 137 281
164 731 69 1133 -50 209 -171 454 -356 721 -52 73 -63 95 -52 102 56 37 120
69 128 65 5 -3 40 -52 78 -108 306 -451 418 -794 418 -1273 0 -244 -32 -437
-100 -619 -68 -180 -193 -355 -415 -576 -149 -150 -267 -241 -495 -382 -250
-154 -350 -209 -498 -272 -396 -169 -841 -256 -1469 -288 -560 -28 -1237 50
-1688 193 -232 74 -428 169 -720 348 -358 220 -566 404 -777 686 -124 167
-187 308 -235 535 -19 93 -22 135 -22 370 -1 278 7 360 56 555 54 219 176 466
367 743 35 51 66 92 70 92 3 0 33 -16 66 -36z m926 -156 c13 -16 18 -39 19
-75 0 -40 4 -53 15 -53 10 0 15 -11 15 -35 0 -31 -3 -35 -36 -41 l-37 -7 32
-13 c40 -17 40 -40 0 -49 -19 -4 -27 -10 -20 -14 9 -6 10 -65 6 -227 -7 -258
-7 -258 -102 -228 -10 2 -13 52 -13 204 0 195 5 233 33 252 6 3 -6 10 -26 13
-51 10 -50 38 1 51 l37 10 -47 8 c-38 7 -48 12 -48 28 0 10 5 16 10 13 6 -3
10 -1 10 4 0 6 -7 11 -15 11 -8 0 -15 5 -15 10 0 6 3 9 8 9 22 -4 27 5 28 45
2 85 97 140 145 84z"/>
<path d="M4730 7273 c-37 -13 -89 -57 -101 -86 -18 -44 -14 -131 8 -169 69
-118 245 -107 299 19 17 39 18 116 3 146 -39 75 -135 116 -209 90z m91 -46
c54 -41 43 -228 -16 -251 -27 -10 -65 13 -80 49 -27 63 -13 183 23 204 23 14
54 13 73 -2z"/>
<path d="M4464 7255 c-3 -8 -1 -74 5 -146 6 -73 11 -140 11 -150 0 -15 8 -19
40 -19 l40 0 0 73 c0 41 -3 115 -6 165 l-7 92 -39 0 c-25 0 -41 -5 -44 -15z"/>
<path d="M4185 7236 c-37 -16 -82 -67 -91 -102 -12 -48 2 -122 30 -159 64 -83
170 -93 267 -25 25 19 29 28 29 71 l0 49 -45 0 -45 0 7 -46 c7 -53 -9 -74 -57
-74 -74 0 -127 138 -85 219 25 49 91 57 129 16 22 -24 24 -24 40 -7 15 18 15
20 -1 34 -46 40 -119 50 -178 24z"/>
<path d="M5225 7230 c-43 -18 -65 -49 -65 -93 0 -39 5 -48 55 -96 57 -55 63
-69 43 -89 -20 -20 -56 -14 -73 12 -11 16 -22 22 -35 19 -26 -7 -25 -15 5 -51
53 -64 159 -48 189 29 21 51 11 74 -54 131 -40 35 -51 51 -48 69 2 20 9 24 38
24 27 0 37 -5 45 -22 11 -26 33 -30 41 -8 10 25 -23 63 -63 74 -44 13 -51 13
-78 1z"/>
<path d="M3884 7178 l-82 -19 41 -157 c22 -86 41 -159 43 -161 1 -1 33 4 71
13 37 9 78 19 91 22 14 3 22 12 22 24 0 23 -10 24 -64 9 -46 -13 -53 -7 -62
48 l-6 42 46 12 c51 13 59 19 47 38 -6 9 -20 11 -50 6 -22 -4 -44 -7 -48 -6
-4 0 -13 20 -19 44 l-11 44 53 12 c43 10 54 17 54 32 0 24 -18 23 -126 -3z"/>
<path d="M5456 7063 c-38 -65 -77 -132 -88 -149 -16 -29 -17 -32 -2 -38 8 -3
17 -6 19 -6 2 0 16 20 31 45 23 40 29 44 52 38 81 -20 77 -16 82 -69 5 -47 7
-50 44 -62 21 -7 41 -10 44 -8 2 3 -1 80 -8 171 -14 179 -13 176 -75 189 -29
6 -31 4 -99 -111z"/>
<path d="M3591 7096 c-19 -7 -36 -17 -39 -24 -3 -11 86 -281 98 -295 6 -7 168
38 182 52 4 3 3 12 -1 20 -7 11 -18 11 -60 1 -29 -7 -53 -11 -55 -9 -1 2 -15
45 -30 94 -27 88 -58 176 -60 174 0 0 -16 -6 -35 -13z"/>
<path d="M5770 7105 c0 -2 -20 -70 -45 -149 -25 -80 -45 -149 -45 -154 0 -8
155 -62 178 -62 7 0 12 8 12 18 0 13 -15 23 -50 36 -27 10 -50 19 -50 20 0 0
20 61 45 135 25 74 44 135 42 136 -5 5 -71 25 -78 25 -5 0 -9 -2 -9 -5z"/>
<path d="M3337 7010 c-40 -12 -94 -56 -112 -90 -22 -42 -19 -115 6 -160 11
-20 40 -49 62 -64 36 -24 50 -27 99 -24 97 7 158 71 158 166 0 122 -103 205
-213 172z m71 -70 c57 -57 80 -172 41 -211 -42 -42 -113 8 -145 104 -37 111
30 181 104 107z"/>
<path d="M5967 6869 c-32 -84 -56 -153 -55 -154 16 -12 173 -73 180 -69 20 13
4 36 -37 54 -50 21 -51 25 -31 75 17 39 22 41 73 20 46 -19 53 -19 53 3 0 11
-16 26 -44 40 l-45 21 17 40 c9 23 22 41 28 41 7 0 31 -9 55 -19 33 -15 45
-17 51 -8 14 22 8 28 -67 62 -127 58 -112 68 -178 -106z"/>
<path d="M6265 6843 c-16 -32 -48 -97 -71 -145 -42 -84 -43 -88 -24 -98 18 -9
24 -2 64 77 l45 88 0 -45 c-1 -25 -4 -72 -8 -105 -5 -33 -7 -62 -5 -63 1 -2
39 26 84 63 45 37 83 65 86 62 2 -2 -16 -40 -41 -83 -25 -43 -45 -82 -45 -87
0 -9 68 -43 74 -36 2 2 40 64 84 137 l81 132 -39 26 -39 26 -63 -48 c-35 -26
-64 -51 -66 -56 -2 -4 -8 -8 -13 -8 -7 0 -8 35 -3 94 l7 94 -31 16 c-17 9 -35
16 -40 16 -5 0 -22 -26 -37 -57z"/>
<path d="M2972 6834 c-129 -77 -98 -275 49 -314 92 -25 209 49 209 133 0 20
-5 27 -20 27 -15 0 -20 -7 -20 -24 0 -41 -40 -78 -84 -78 -49 0 -84 26 -113
83 -30 60 -30 103 3 135 24 25 61 29 112 13 8 -2 19 4 25 14 17 25 -5 37 -68
37 -36 0 -62 -7 -93 -26z"/>
<path d="M2950 6262 c-86 -66 -135 -143 -147 -227 -5 -37 -3 -45 10 -45 26 0
47 11 47 25 0 29 19 23 63 -19 26 -24 48 -42 50 -39 8 7 56 -76 67 -116 6 -22
16 -41 22 -41 18 0 46 40 63 91 13 38 19 46 28 36 16 -16 45 -83 57 -132 9
-39 9 -39 4 10 -5 50 -57 168 -94 215 l-19 25 6 -23 c6 -24 -15 -130 -27 -137
-4 -3 -13 22 -19 54 -6 33 -23 76 -36 96 -66 96 -80 161 -50 219 9 16 14 30
12 32 -1 2 -18 -9 -37 -24z"/>
<path d="M4342 2451 c-37 -7 -44 -26 -9 -26 21 0 22 -3 25 -117 l3 -118 34 0
35 0 0 135 0 135 -27 -1 c-16 -1 -43 -4 -61 -8z"/>
<path d="M4569 2431 c-50 -51 -28 -131 36 -131 31 0 31 1 0 -60 l-25 -50 38 0
c39 0 39 1 72 71 45 99 49 140 17 173 -38 38 -98 36 -138 -3z"/>
<path d="M4808 2393 c-17 -38 -33 -89 -36 -115 -4 -40 -1 -50 21 -72 30 -30
73 -34 117 -11 36 19 50 43 50 89 0 39 -28 66 -68 66 -20 0 -22 4 -16 23 3 12
13 34 20 48 16 31 10 39 -28 39 -26 0 -32 -7 -60 -67z"/>
<path d="M4990 2440 c0 -18 7 -20 55 -20 30 0 55 -2 55 -4 0 -2 -18 -44 -41
-93 -66 -142 -65 -133 -21 -133 l38 0 53 120 c29 66 51 127 47 135 -4 12 -24
15 -96 15 -83 0 -90 -1 -90 -20z"/>
<path d="M3363 1782 c-3 -9 -24 -57 -45 -106 -21 -49 -38 -95 -38 -101 0 -18
96 -55 141 -55 65 0 98 49 64 97 -13 19 -13 21 5 26 11 3 25 17 31 31 18 39
-12 74 -89 103 -58 21 -63 22 -69 5z"/>
<path d="M5946 1788 l-29 -11 7 -130 c3 -72 8 -132 10 -134 2 -2 15 1 30 7 24
9 26 13 20 44 -6 34 -5 35 35 47 38 11 43 10 65 -10 21 -20 27 -21 48 -11 12
7 25 14 27 16 4 4 -171 194 -179 193 -3 0 -18 -5 -34 -11z"/>
<path d="M3619 1653 c-18 -27 -52 -74 -77 -106 -24 -32 -43 -60 -41 -61 2 -2
14 -8 26 -15 19 -9 25 -7 45 19 22 28 25 29 61 18 33 -10 37 -15 37 -45 0 -27
5 -35 26 -43 14 -6 29 -10 34 -10 8 0 4 201 -6 247 -3 17 -46 43 -70 43 -2 0
-18 -21 -35 -47z"/>
<path d="M5681 1691 c-13 -8 -10 -27 20 -125 24 -82 38 -116 49 -116 26 1 144
45 147 55 1 6 -1 16 -5 23 -7 9 -18 9 -56 -4 -26 -9 -49 -14 -52 -11 -3 2 -17
45 -33 93 -27 88 -41 104 -70 85z"/>
<path d="M5494 1640 l-22 -8 28 -117 c15 -64 30 -118 33 -122 6 -5 155 31 163
40 3 2 2 12 -2 21 -5 14 -14 16 -48 10 -22 -4 -47 -7 -55 -8 -10 -1 -21 27
-37 88 -12 48 -26 92 -31 96 -4 4 -18 4 -29 0z"/>
<path d="M3830 1598 c-6 -24 -20 -76 -31 -116 -11 -40 -17 -77 -14 -82 8 -13
55 -18 55 -6 0 31 23 86 35 86 22 0 45 -41 45 -81 0 -33 3 -37 30 -41 29 -4
30 -3 30 33 0 21 -6 50 -12 65 -10 22 -10 28 0 32 42 14 56 76 24 105 -19 17
-104 47 -134 47 -12 0 -21 -13 -28 -42z"/>
<path d="M5377 1613 c-11 -3 -16 -11 -13 -19 3 -7 15 -63 27 -123 22 -110 23
-111 48 -104 14 3 28 7 30 9 4 3 -30 169 -46 227 -4 17 -12 19 -46 10z"/>
<path d="M5270 1590 c-12 -7 -13 -19 -2 -80 16 -96 15 -118 -7 -130 -53 -28
-76 -3 -92 105 -12 84 -13 85 -41 85 -15 0 -28 -4 -28 -10 0 -36 25 -170 36
-192 29 -57 139 -58 185 0 23 29 23 71 -1 180 -12 52 -22 60 -50 42z"/>
<path d="M4065 1579 c-10 -28 -41 -229 -37 -234 3 -3 16 -5 28 -5 22 0 25 5
38 63 12 52 66 21 66 -39 0 -34 6 -40 45 -46 17 -3 20 2 17 32 -2 19 -8 48
-14 63 -9 25 -8 30 11 43 31 22 26 80 -9 105 -33 24 -138 37 -145 18z"/>
<path d="M4352 1533 c-29 -56 -94 -215 -90 -219 3 -2 15 -7 27 -9 17 -3 25 4
38 31 16 32 19 34 52 28 47 -9 47 -9 54 -44 6 -25 11 -30 37 -30 16 0 30 3 30
6 0 4 -15 62 -32 130 l-33 124 -37 0 c-25 0 -40 -6 -46 -17z"/>
<path d="M4879 1535 c-41 -22 -59 -58 -59 -119 0 -80 30 -107 143 -129 109
-22 117 -21 117 3 0 15 -7 20 -25 20 -30 0 -31 3 -4 40 18 24 21 38 17 86 -4
49 -10 62 -37 86 -25 23 -40 28 -79 28 -26 -1 -59 -7 -73 -15z m110 -51 c45
-57 18 -144 -44 -144 -43 0 -65 29 -65 87 0 77 67 111 109 57z"/>
<path d="M4557 1534 c-4 -4 -7 -61 -7 -126 l0 -118 25 0 c25 0 25 1 25 85 0
47 4 85 8 85 4 0 18 -20 30 -45 12 -25 33 -63 47 -85 22 -35 30 -40 61 -40 33
0 36 2 30 23 -3 12 -6 68 -6 125 0 102 0 102 -25 102 -24 0 -24 -2 -27 -82
l-3 -83 -45 80 c-39 70 -49 80 -76 83 -16 2 -33 0 -37 -4z"/>
</g>
</svg>
